<svg width="119" height="163" viewBox="0 0 119 163" fill="none" xmlns="http://www.w3.org/2000/svg">
<path d="M6.05784 70.1506C6.6401 71.1591 6.31961 72.3526 5.31003 72.9355C4.30045 73.5184 3.10657 73.1991 2.52432 72.1906C1.94206 71.1822 2.26256 69.9886 3.27213 69.4057C4.28171 68.8229 5.52411 69.2261 6.05784 70.1506Z" fill="#FFCF2D"/>
<path d="M21.1174 61.4553C21.6997 62.4638 21.3792 63.6573 20.3696 64.2402C19.36 64.823 18.1661 64.5038 17.5839 63.4953C17.0016 62.4868 17.3221 61.2933 18.3317 60.7104C19.2571 60.1761 20.5837 60.5308 21.1174 61.4553Z" fill="#FFCF2D"/>
<path d="M36.177 52.7599C36.7592 53.7684 36.4387 54.962 35.4292 55.5449C34.4196 56.1277 33.2257 55.8085 32.6435 54.8C32.0612 53.7915 32.3817 52.598 33.3913 52.0151C34.4008 51.4322 35.6432 51.8355 36.177 52.7599Z" fill="#FFCF2D"/>
<path d="M51.1523 44.1135C51.7346 45.122 51.4141 46.3155 50.4045 46.8984C49.3949 47.4812 48.2011 47.162 47.6188 46.1535C47.0365 45.145 47.357 43.9515 48.3666 43.3686C49.3762 42.7857 50.6186 43.189 51.1523 44.1135Z" fill="#FFCF2D"/>
<path d="M66.2119 35.4201C66.7941 36.4286 66.4737 37.6221 65.4641 38.205C64.4545 38.7879 63.2606 38.4687 62.6784 37.4602C62.0961 36.4517 62.4166 35.2582 63.4262 34.6753C64.4358 34.0924 65.6782 34.4956 66.2119 35.4201Z" fill="#FFCF2D"/>
<path d="M81.2715 26.7248C81.8537 27.7333 81.5332 28.9268 80.5237 29.5097C79.5141 30.0926 78.3202 29.7734 77.7379 28.7649C77.1557 27.7564 77.4762 26.5628 78.4858 25.98C79.4112 25.4457 80.7377 25.8003 81.2715 26.7248Z" fill="#FFCF2D"/>
<path d="M13.2873 82.6721C13.8696 83.6805 13.5491 84.8741 12.5395 85.457C11.5299 86.0398 10.3361 85.7206 9.75381 84.7121C9.17156 83.7036 9.49205 82.5101 10.5016 81.9272C11.5112 81.3443 12.7051 81.6636 13.2873 82.6721Z" fill="#FFCF2D"/>
<path d="M28.3469 73.9767C28.9292 74.9852 28.6087 76.1788 27.5991 76.7616C26.5895 77.3445 25.3956 77.0253 24.8134 76.0168C24.2311 75.0083 24.5516 73.8148 25.5612 73.2319C26.4866 72.6976 27.7646 72.9682 28.3469 73.9767Z" fill="#FFCF2D"/>
<path d="M43.4065 65.2834C43.9887 66.2919 43.6682 67.4854 42.6587 68.0683C41.6491 68.6512 40.4552 68.332 39.873 67.3235C39.2907 66.315 39.6112 65.1214 40.6208 64.5386C41.6303 63.9557 42.8242 64.2749 43.4065 65.2834Z" fill="#FFCF2D"/>
<path d="M58.3818 56.6369C58.9641 57.6454 58.6436 58.8389 57.634 59.4218C56.6244 60.0047 55.4305 59.6855 54.8483 58.677C54.266 57.6685 54.5865 56.4749 55.5961 55.8921C56.6057 55.3092 57.7996 55.6284 58.3818 56.6369Z" fill="#FFCF2D"/>
<path d="M73.4414 47.9416C74.0236 48.9501 73.7031 50.1436 72.6936 50.7265C71.684 51.3094 70.4901 50.9902 69.9079 49.9817C69.3256 48.9732 69.6461 47.7796 70.6557 47.1968C71.6653 46.6139 72.8591 46.9331 73.4414 47.9416Z" fill="#FFCF2D"/>
<path d="M88.501 39.2463C89.0832 40.2548 88.7627 41.4483 87.7531 42.0312C86.7436 42.6141 85.5497 42.2948 84.9674 41.2864C84.3852 40.2779 84.7057 39.0843 85.7153 38.5014C86.6407 37.9671 87.9187 38.2378 88.501 39.2463Z" fill="#FFCF2D"/>
<path d="M6.70652 36.4943C7.28877 37.5028 6.96828 38.6963 5.9587 39.2792C4.94913 39.8621 3.75525 39.5429 3.173 38.5344C2.59074 37.5259 2.91123 36.3324 3.92081 35.7495C4.84626 35.2152 6.12426 35.4858 6.70652 36.4943Z" fill="#FFCF2D"/>
<path d="M21.7661 27.801C22.3483 28.8095 22.0279 30.003 21.0183 30.5859C20.0087 31.1687 18.8148 30.8495 18.2326 29.841C17.6503 28.8325 17.9708 27.639 18.9804 27.0561C19.99 26.4733 21.1838 26.7925 21.7661 27.801Z" fill="#FFCF2D"/>
<path d="M36.7414 19.1545C37.3237 20.163 37.0032 21.3565 35.9936 21.9394C34.984 22.5223 33.7902 22.203 33.2079 21.1946C32.6257 20.1861 32.9462 18.9925 33.9557 18.4096C34.9653 17.8268 36.1592 18.146 36.7414 19.1545Z" fill="#FFCF2D"/>
<path d="M51.801 10.4592C52.3833 11.4677 52.0628 12.6612 51.0532 13.2441C50.0436 13.8269 48.8497 13.5077 48.2675 12.4992C47.6852 11.4907 48.0057 10.2972 49.0153 9.71434C50.0249 9.13146 51.2188 9.45067 51.801 10.4592Z" fill="#FFCF2D"/>
<path d="M66.8606 1.76385C67.4428 2.77235 67.1223 3.96587 66.1128 4.54875C65.1032 5.13163 63.9093 4.81242 63.3271 3.80393C62.7448 2.79543 63.0653 1.6019 64.0749 1.01902C65.0003 0.484714 66.2783 0.755357 66.8606 1.76385Z" fill="#FFCF2D"/>
<path d="M13.9363 49.0178C14.5185 50.0263 14.198 51.2198 13.1884 51.8027C12.1789 52.3855 10.985 52.0663 10.4027 51.0578C9.82048 50.0493 10.141 48.8558 11.1505 48.2729C12.076 47.7386 13.354 48.0093 13.9363 49.0178Z" fill="#FFCF2D"/>
<path d="M28.9958 40.3224C29.5781 41.3309 29.2576 42.5245 28.248 43.1074C27.2384 43.6902 26.0446 43.371 25.4623 42.3625C24.8801 41.354 25.2005 40.1605 26.2101 39.5776C27.2197 38.9947 28.4136 39.314 28.9958 40.3224Z" fill="#FFCF2D"/>
<path d="M43.9712 31.676C44.5534 32.6845 44.2329 33.878 43.2234 34.4609C42.2138 35.0437 41.0199 34.7245 40.4376 33.716C39.8554 32.7075 40.1759 31.514 41.1855 30.9311C42.195 30.3482 43.3889 30.6675 43.9712 31.676Z" fill="#FFCF2D"/>
<path d="M59.0307 22.9826C59.613 23.9911 59.2925 25.1846 58.2829 25.7675C57.2733 26.3504 56.0795 26.0312 55.4972 25.0227C54.915 24.0142 55.2355 22.8207 56.245 22.2378C57.2546 21.6549 58.4485 21.9741 59.0307 22.9826Z" fill="#FFCF2D"/>
<path d="M74.0903 14.2873C74.6726 15.2958 74.3521 16.4893 73.3425 17.0722C72.3329 17.6551 71.139 17.3359 70.5568 16.3274C69.9745 15.3189 70.295 14.1253 71.3046 13.5425C72.2301 13.0082 73.5081 13.2788 74.0903 14.2873Z" fill="#FFCF2D"/>
<path d="M5.40916 103.805C5.99142 104.813 5.67092 106.007 4.66134 106.59C3.65176 107.173 2.45789 106.853 1.87564 105.845C1.29338 104.836 1.61387 103.643 2.62345 103.06C3.63303 102.477 4.87543 102.88 5.40916 103.805Z" fill="#FFCF2D"/>
<path d="M20.4687 95.1096C21.051 96.118 20.7305 97.3116 19.7209 97.8945C18.7113 98.4773 17.5175 98.1581 16.9352 97.1496C16.353 96.1411 16.6734 94.9476 17.683 94.3647C18.6926 93.7818 19.935 94.1851 20.4687 95.1096Z" fill="#FFCF2D"/>
<path d="M35.5283 86.4162C36.1105 87.4247 35.7901 88.6182 34.7805 89.2011C33.7709 89.784 32.577 89.4648 31.9948 88.4563C31.4125 87.4478 31.733 86.2542 32.7426 85.6714C33.668 85.1371 34.9946 85.4917 35.5283 86.4162Z" fill="#FFCF2D"/>
<path d="M50.5879 77.7209C51.1701 78.7294 50.8496 79.9229 49.8401 80.5058C48.8305 81.0887 47.6366 80.7695 47.0543 79.761C46.4721 78.7525 46.7926 77.5589 47.8022 76.9761C48.8117 76.3932 50.0541 76.7964 50.5879 77.7209Z" fill="#FFCF2D"/>
<path d="M65.5632 69.0744C66.1455 70.0829 65.825 71.2764 64.8154 71.8593C63.8058 72.4422 62.6119 72.123 62.0297 71.1145C61.4474 70.106 61.7679 68.9124 62.7775 68.3296C63.7871 67.7467 65.0295 68.1499 65.5632 69.0744Z" fill="#FFCF2D"/>
<path d="M80.6228 60.3791C81.205 61.3876 80.8845 62.5811 79.875 63.164C78.8654 63.7469 77.6715 63.4277 77.0893 62.4192C76.507 61.4107 76.8275 60.2171 77.8371 59.6343C78.8466 59.0514 80.089 59.4546 80.6228 60.3791Z" fill="#FFCF2D"/>
<path d="M95.6823 51.6857C96.2646 52.6942 95.9441 53.8878 94.9345 54.4706C93.925 55.0535 92.7311 54.7343 92.1488 53.7258C91.5666 52.7173 91.8871 51.5238 92.8966 50.9409C93.8221 50.4066 95.1486 50.7613 95.6823 51.6857Z" fill="#FFCF2D"/>
<path d="M12.6387 116.326C13.2209 117.335 12.9004 118.528 11.8908 119.111C10.8813 119.694 9.68738 119.375 9.10513 118.366C8.52287 117.358 8.84336 116.164 9.85294 115.582C10.8625 114.999 12.0564 115.318 12.6387 116.326Z" fill="#FFCF2D"/>
<path d="M26.9504 110.416C27.9262 109.853 28.261 108.606 27.6982 107.631C27.1355 106.656 25.8883 106.323 24.9125 106.886C23.9368 107.45 23.6019 108.696 24.1647 109.671C24.7274 110.646 25.9747 110.979 26.9504 110.416Z" fill="#FFCF2D"/>
<path d="M42.7578 98.9377C43.34 99.9462 43.0195 101.14 42.01 101.723C41.0004 102.305 39.8065 101.986 39.2243 100.978C38.642 99.9693 38.9625 98.7757 39.9721 98.1929C40.8975 97.6585 42.1755 97.9292 42.7578 98.9377Z" fill="#FFCF2D"/>
<path d="M57.8174 90.2424C58.3996 91.2509 58.0791 92.4444 57.0695 93.0273C56.06 93.6102 54.8661 93.2909 54.2838 92.2824C53.7016 91.2739 54.0221 90.0804 55.0317 89.4975C56.0412 88.9147 57.2351 89.2339 57.8174 90.2424Z" fill="#FFCF2D"/>
<path d="M72.7927 81.5959C73.375 82.6044 73.0545 83.7979 72.0449 84.3808C71.0353 84.9637 69.8414 84.6445 69.2592 83.636C68.6769 82.6275 68.9974 81.4339 70.007 80.8511C71.0166 80.2682 72.2104 80.5874 72.7927 81.5959Z" fill="#FFCF2D"/>
<path d="M87.1045 75.6874C88.0802 75.1241 88.415 73.8772 87.8523 72.9025C87.2895 71.9278 86.0423 71.5943 85.0666 72.1577C84.0908 72.721 83.756 73.9679 84.3188 74.9426C84.8815 75.9173 86.1287 76.2508 87.1045 75.6874Z" fill="#FFCF2D"/>
<path d="M102.912 64.2072C103.494 65.2157 103.174 66.4092 102.164 66.9921C101.154 67.575 99.9606 67.2558 99.3783 66.2473C98.7961 65.2388 99.1166 64.0453 100.126 63.4624C101.052 62.9281 102.33 63.1987 102.912 64.2072Z" fill="#FFCF2D"/>
<path d="M4.89305 137.494C5.4753 138.503 5.15481 139.696 4.14523 140.279C3.13566 140.862 1.94178 140.543 1.35953 139.534C0.77727 138.526 1.09776 137.332 2.10734 136.749C3.03278 136.215 4.31079 136.486 4.89305 137.494Z" fill="#FFCF2D"/>
<path d="M19.8684 128.85C20.4506 129.858 20.1302 131.052 19.1206 131.635C18.111 132.218 16.9171 131.898 16.3349 130.89C15.7526 129.881 16.0731 128.688 17.0827 128.105C18.0923 127.522 19.2861 127.841 19.8684 128.85Z" fill="#FFCF2D"/>
<path d="M34.928 120.154C35.5102 121.163 35.1897 122.357 34.1801 122.939C33.1706 123.522 31.9767 123.203 31.3944 122.195C30.8122 121.186 31.1327 119.993 32.1423 119.41C33.1518 118.827 34.3457 119.146 34.928 120.154Z" fill="#FFCF2D"/>
<path d="M49.9875 111.459C50.5698 112.468 50.2493 113.661 49.2397 114.244C48.2301 114.827 47.0363 114.508 46.454 113.499C45.8718 112.491 46.1922 111.297 47.2018 110.714C48.1273 110.18 49.4053 110.451 49.9875 111.459Z" fill="#FFCF2D"/>
<path d="M65.0471 102.766C65.6294 103.774 65.3089 104.968 64.2993 105.551C63.2897 106.134 62.0958 105.814 61.5136 104.806C60.9313 103.797 61.2518 102.604 62.2614 102.021C63.271 101.438 64.4648 101.757 65.0471 102.766Z" fill="#FFCF2D"/>
<path d="M80.0227 94.1193C80.6049 95.1278 80.2845 96.3213 79.2749 96.9042C78.2653 97.4871 77.0714 97.1679 76.4892 96.1594C75.9069 95.1509 76.2274 93.9574 77.237 93.3745C78.2466 92.7916 79.4404 93.1108 80.0227 94.1193Z" fill="#FFCF2D"/>
<path d="M95.0823 85.424C95.6645 86.4325 95.344 87.626 94.3344 88.2089C93.3249 88.7918 92.131 88.4726 91.5487 87.4641C90.9665 86.4556 91.287 85.2621 92.2965 84.6792C93.3061 84.0963 94.5 84.4155 95.0823 85.424Z" fill="#FFCF2D"/>
<path d="M110.142 76.7307C110.724 77.7391 110.403 78.9327 109.394 79.5156C108.384 80.0984 107.19 79.7792 106.608 78.7707C106.026 77.7622 106.346 76.5687 107.356 75.9858C108.281 75.4515 109.559 75.7222 110.142 76.7307Z" fill="#FFCF2D"/>
<path d="M12.0742 149.934C12.6565 150.942 12.336 152.136 11.3264 152.719C10.3168 153.302 9.12293 152.982 8.54068 151.974C7.95842 150.965 8.27891 149.772 9.28849 149.189C10.2139 148.655 11.5405 149.009 12.0742 149.934Z" fill="#FFCF2D"/>
<path d="M27.0495 141.287C27.6318 142.296 27.3113 143.489 26.3017 144.072C25.2921 144.655 24.0983 144.336 23.516 143.327C22.9338 142.319 23.2543 141.125 24.2638 140.542C25.2734 139.96 26.5158 140.363 27.0495 141.287Z" fill="#FFCF2D"/>
<path d="M42.1091 132.592C42.6914 133.6 42.3709 134.794 41.3613 135.377C40.3517 135.96 39.1578 135.641 38.5756 134.632C37.9933 133.624 38.3138 132.43 39.3234 131.847C40.333 131.264 41.5754 131.668 42.1091 132.592Z" fill="#FFCF2D"/>
<path d="M57.1687 123.899C57.7509 124.907 57.4304 126.101 56.4209 126.684C55.4113 127.266 54.2174 126.947 53.6352 125.939C53.0529 124.93 53.3734 123.737 54.383 123.154C55.3084 122.619 56.6349 122.974 57.1687 123.899Z" fill="#FFCF2D"/>
<path d="M72.2282 115.203C72.8105 116.212 72.49 117.405 71.4804 117.988C70.4709 118.571 69.277 118.252 68.6947 117.243C68.1125 116.235 68.433 115.041 69.4425 114.458C70.4521 113.876 71.6945 114.279 72.2282 115.203Z" fill="#FFCF2D"/>
<path d="M87.2036 106.557C87.7859 107.565 87.4654 108.759 86.4558 109.342C85.4462 109.925 84.2523 109.605 83.6701 108.597C83.0878 107.588 83.4083 106.395 84.4179 105.812C85.4275 105.229 86.6699 105.632 87.2036 106.557Z" fill="#FFCF2D"/>
<path d="M102.263 97.8615C102.845 98.87 102.525 100.064 101.515 100.646C100.506 101.229 99.3119 100.91 98.7296 99.9016C98.1474 98.8931 98.4679 97.6996 99.4775 97.1167C100.487 96.5338 101.729 96.9371 102.263 97.8615Z" fill="#FFCF2D"/>
<path d="M117.323 89.1682C117.905 90.1766 117.585 91.3702 116.575 91.9531C115.565 92.5359 114.371 92.2167 113.789 91.2082C113.207 90.1997 113.527 89.0062 114.537 88.4233C115.462 87.889 116.789 88.2437 117.323 89.1682Z" fill="#FFCF2D"/>
</svg>
