<svg width="236" height="70" viewBox="0 0 236 70" fill="none" xmlns="http://www.w3.org/2000/svg">
<path d="M117.581 -166C52.5807 -166 0 -113.419 0 -48.4193C0 16.4194 52.5807 69.1613 117.581 69.1613C182.419 69.1613 235.161 16.5806 235.161 -48.4193C235 -113.419 182.419 -166 117.581 -166ZM117.581 61.5807C56.7742 61.5807 7.58065 12.3871 7.58065 -48.4193C7.58065 -109.226 56.7742 -158.419 117.581 -158.419C178.387 -158.419 227.581 -109.226 227.581 -48.4193C227.581 12.2258 178.226 61.5807 117.581 61.5807Z" fill="white"/>
<path d="M117.582 -140.678C66.7752 -140.678 25.4849 -99.3874 25.4849 -48.581C25.4849 2.22548 66.7752 43.5158 117.582 43.5158C168.388 43.5158 209.678 2.38678 209.678 -48.4197C209.678 -99.3874 168.388 -140.678 117.582 -140.678ZM117.582 29.4836C74.5171 29.4836 39.5171 -5.51645 39.5171 -48.581C39.5171 -91.6455 74.5171 -126.645 117.582 -126.645C160.646 -126.645 195.646 -91.6455 195.646 -48.581C195.646 -5.51645 160.646 29.4836 117.582 29.4836Z" fill="white"/>
</svg>
