<svg width="507" height="455" viewBox="0 0 507 455" fill="none" xmlns="http://www.w3.org/2000/svg">
<path d="M406.421 454.52H0L166.082 61.1504H240.34L406.421 454.52Z" fill="#D0F0E4"/>
<path fill-rule="evenodd" clip-rule="evenodd" d="M203.212 23.8496L210.594 31.2125L209.916 31.8884L203.212 25.2013L196.509 31.8884L195.831 31.2125L203.212 23.8496Z" fill="#FFCF2D"/>
<path fill-rule="evenodd" clip-rule="evenodd" d="M203.69 0.998047V24.5263H202.731V0.998047H203.69Z" fill="#FFCF2D"/>
<path d="M203.21 73.4152C209.472 73.4152 214.549 68.3515 214.549 62.1051C214.549 55.8587 209.472 50.7949 203.21 50.7949C196.948 50.7949 191.872 55.8587 191.872 62.1051C191.872 68.3515 196.948 73.4152 203.21 73.4152Z" fill="#FFCF2D"/>
<path fill-rule="evenodd" clip-rule="evenodd" d="M203.21 51.2722C197.213 51.2722 192.351 56.122 192.351 62.1045C192.351 68.0869 197.213 72.9367 203.21 72.9367C209.207 72.9367 214.069 68.0869 214.069 62.1045C214.069 56.122 209.207 51.2722 203.21 51.2722ZM191.393 62.1045C191.393 55.5941 196.683 50.3164 203.21 50.3164C209.736 50.3164 215.027 55.5941 215.027 62.1045C215.027 68.6148 209.736 73.8925 203.21 73.8925C196.683 73.8925 191.393 68.6148 191.393 62.1045Z" fill="white"/>
<path fill-rule="evenodd" clip-rule="evenodd" d="M203.226 31.5046C185.706 31.5046 170.755 42.1628 167.555 56.744L166.693 60.6721H239.744L238.881 56.7281C238.881 56.728 238.881 56.7279 238.881 56.7278C237.281 49.4353 232.759 43.1289 226.424 38.6487L226.424 38.6484C220.104 34.1677 211.977 31.5046 203.226 31.5046ZM166.619 56.5395C169.935 41.4277 185.358 30.5488 203.226 30.5488C212.169 30.5488 220.491 33.2699 226.978 37.869C233.483 42.4688 238.159 48.9697 239.817 56.5237L239.817 56.524L240.934 61.6278H165.502L166.619 56.5395C166.619 56.5396 166.619 56.5395 166.619 56.5395Z" fill="#9A3B82"/>
<path d="M338.266 314.846H330.729V362.316H338.266V314.846Z" fill="#66B0F0"/>
<path d="M475.141 362.316H432.232C430.683 362.316 429.485 360.978 429.676 359.449L435.649 309.159C435.809 307.868 436.911 306.896 438.204 306.896H481.114C482.663 306.896 483.861 308.235 483.669 309.764L477.696 360.054C477.537 361.345 476.435 362.316 475.141 362.316Z" fill="#9A3B82"/>
<path d="M451.762 362.316H417.875C415.799 362.316 414.186 360.5 414.426 358.445L418.77 321.822C418.977 320.086 420.462 318.764 422.219 318.764H456.92L451.762 362.316Z" fill="white"/>
<path fill-rule="evenodd" clip-rule="evenodd" d="M419.245 321.88C419.245 321.88 419.245 321.88 419.245 321.88L414.901 358.501C414.901 358.501 414.901 358.502 414.901 358.502C414.695 360.274 416.087 361.839 417.875 361.839H451.336L456.381 319.243H422.219C420.706 319.243 419.424 320.383 419.245 321.88ZM418.294 321.767C418.53 319.791 420.218 318.287 422.219 318.287H457.459L452.188 362.795H417.875C415.511 362.795 413.677 360.728 413.95 358.391L413.95 358.39L418.294 321.767Z" fill="#FFCF2D"/>
<path d="M455.564 362.316H423.226C421.15 362.316 419.537 360.5 419.777 358.445L424.12 321.822C424.328 320.086 425.813 318.764 427.57 318.764H460.323C461.361 318.764 462.175 319.672 462.048 320.707L457.289 360.77C457.193 361.663 456.442 362.316 455.564 362.316Z" fill="white"/>
<path fill-rule="evenodd" clip-rule="evenodd" d="M424.596 321.88C424.596 321.88 424.596 321.88 424.596 321.88L420.252 358.501C420.252 358.501 420.252 358.502 420.252 358.502C420.046 360.274 421.438 361.839 423.226 361.839H455.564C456.201 361.839 456.743 361.366 456.812 360.721L456.812 360.718L461.572 320.652L461.572 320.65C461.664 319.902 461.075 319.243 460.323 319.243H427.569C426.056 319.243 424.775 320.383 424.596 321.88ZM423.644 321.767C423.88 319.791 425.569 318.287 427.569 318.287H460.323C461.646 318.287 462.686 319.444 462.523 320.766C462.523 320.766 462.523 320.767 462.523 320.767L457.765 360.823C457.765 360.824 457.765 360.824 457.764 360.825C457.641 361.963 456.682 362.795 455.564 362.795H423.226C420.862 362.795 419.028 360.728 419.3 358.391L419.3 358.39L423.644 321.767Z" fill="#FFCF2D"/>
<path fill-rule="evenodd" clip-rule="evenodd" d="M338.268 321.504H352.305V362.794H338.268V321.504ZM339.226 322.46V361.838H351.347V322.46H339.226Z" fill="#9A3B82"/>
<path fill-rule="evenodd" clip-rule="evenodd" d="M346.796 321.504H366.167V362.794H346.796V321.504ZM347.754 322.46V361.838H365.209V322.46H347.754Z" fill="#9A3B82"/>
<path fill-rule="evenodd" clip-rule="evenodd" d="M363.225 317.076H369.359L388.719 362.795H382.585L363.225 317.076ZM364.669 318.032L383.22 361.839H387.274L368.724 318.032H364.669Z" fill="#9A3B82"/>
<path fill-rule="evenodd" clip-rule="evenodd" d="M371.173 323.877H381.701L398.433 362.793H387.905L371.173 323.877ZM372.626 324.833L388.536 361.838H396.979L381.07 324.833H372.626Z" fill="#9A3B82"/>
<path fill-rule="evenodd" clip-rule="evenodd" d="M316.581 321.504H330.73V362.794H316.581V321.504ZM317.539 322.46V361.838H329.772V322.46H317.539Z" fill="#9A3B82"/>
<path fill-rule="evenodd" clip-rule="evenodd" d="M316.581 290.586H378.894V299.411H316.581V290.586ZM317.539 291.542V298.455H377.935V291.542H317.539Z" fill="#9A3B82"/>
<path d="M394.783 285.043H317.06V291.383H394.783V285.043Z" fill="#FE5244"/>
<path d="M369.519 275.898H317.06V284.883H369.519V275.898Z" fill="#FFCF2D"/>
<path fill-rule="evenodd" clip-rule="evenodd" d="M316.581 268.555H378.894V276.217H316.581V268.555ZM317.539 269.51V275.261H377.935V269.51H317.539Z" fill="#9A3B82"/>
<path d="M484.275 251.35L484.227 251.621L476.977 298.932H409.714L416.964 251.621L417.06 250.952C418.21 248.626 425.236 246.826 433.748 246.826C443.058 246.826 450.596 248.977 450.596 251.621C450.596 248.977 458.133 246.826 467.443 246.826C476.434 246.842 483.764 248.833 484.275 251.35Z" fill="white"/>
<path fill-rule="evenodd" clip-rule="evenodd" d="M417.523 251.1L417.438 251.69L410.272 298.454H476.566L483.755 251.543L483.786 251.365C483.667 250.955 483.259 250.481 482.447 249.992C481.6 249.483 480.401 249.012 478.914 248.611C475.944 247.81 471.908 247.311 467.443 247.303C462.82 247.303 458.654 247.838 455.66 248.691C454.159 249.118 452.98 249.618 452.187 250.152C451.377 250.697 451.075 251.202 451.075 251.62H450.117C450.117 251.202 449.815 250.697 449.005 250.152C448.211 249.618 447.032 249.118 445.532 248.691C442.537 247.838 438.372 247.303 433.748 247.303C429.522 247.303 425.678 247.751 422.76 248.48C421.3 248.845 420.086 249.277 419.177 249.749C418.297 250.207 417.761 250.673 417.523 251.1ZM450.596 250.313C450.328 249.961 449.962 249.643 449.541 249.359C448.629 248.746 447.342 248.213 445.795 247.772C442.693 246.888 438.435 246.348 433.748 246.348C429.462 246.348 425.537 246.801 422.527 247.553C421.023 247.929 419.732 248.383 418.734 248.902C417.751 249.413 416.986 250.021 416.63 250.74L416.597 250.808L416.49 251.553L409.156 299.41H477.389L484.7 251.698L484.763 251.343L484.745 251.255C484.576 250.424 483.875 249.735 482.941 249.174C481.989 248.601 480.697 248.102 479.164 247.688C476.094 246.86 471.97 246.356 467.444 246.348H467.443C462.757 246.348 458.499 246.888 455.397 247.772C453.849 248.213 452.562 248.746 451.651 249.359C451.229 249.643 450.864 249.961 450.596 250.313Z" fill="#FFCF2D"/>
<path fill-rule="evenodd" clip-rule="evenodd" d="M451.085 251.708L443.899 299.019L442.951 298.876L450.137 251.564L451.085 251.708Z" fill="#FFCF2D"/>
<path d="M443.426 298.947C443.426 296.303 435.888 294.152 426.578 294.152C417.268 294.152 409.73 296.303 409.73 298.947H443.426Z" fill="#FFCF2D"/>
<path d="M477.121 298.947C477.121 296.303 469.584 294.152 460.273 294.152C450.963 294.152 443.426 296.303 443.426 298.947H477.121Z" fill="#FFCF2D"/>
<path fill-rule="evenodd" clip-rule="evenodd" d="M482.178 248.791C482.439 248.833 482.617 249.078 482.576 249.338L475.297 294.987L474.744 294.774C471.808 293.643 466.146 292.832 460.37 293.038C455.746 293.204 451.6 293.884 448.637 294.841C447.152 295.32 445.991 295.86 445.217 296.421C444.427 296.994 444.144 297.509 444.159 297.927C444.169 298.191 443.962 298.413 443.698 298.422C443.433 298.432 443.211 298.226 443.201 297.962C443.169 297.058 443.782 296.281 444.654 295.648C445.543 295.004 446.81 294.426 448.342 293.932C451.411 292.941 455.649 292.251 460.335 292.083C465.852 291.886 471.328 292.599 474.534 293.683L481.63 249.188C481.671 248.927 481.917 248.75 482.178 248.791Z" fill="#FFCF2D"/>
<path d="M478.912 235.564H418.516V222.151C418.516 220.829 419.586 219.762 420.911 219.762H476.532C477.858 219.762 478.928 220.829 478.928 222.151V235.564H478.912Z" fill="white"/>
<path fill-rule="evenodd" clip-rule="evenodd" d="M420.91 220.239C419.849 220.239 418.993 221.092 418.993 222.151V235.085H478.447V222.151C478.447 221.092 477.592 220.239 476.531 220.239H420.91ZM418.035 222.151C418.035 220.564 419.32 219.283 420.91 219.283H476.531C478.121 219.283 479.406 220.564 479.406 222.151V236.041H418.035V222.151Z" fill="#9A3B82"/>
<path d="M483.734 219.124H431.69C430.875 219.124 430.236 218.471 430.236 217.675V212.338C430.236 211.526 430.891 210.889 431.69 210.889H483.734C484.548 210.889 485.187 211.542 485.187 212.338V217.675C485.187 218.471 484.532 219.124 483.734 219.124Z" fill="#FFCF2D"/>
<path d="M485.762 205.887H424.024V210.889H485.762V205.887Z" fill="#FE5244"/>
<path d="M484.643 205.887H437.517C436.894 205.887 436.399 205.378 436.399 204.772V200.742C436.399 200.121 436.91 199.627 437.517 199.627H484.643C485.266 199.627 485.761 200.137 485.761 200.742V204.772C485.761 205.378 485.266 205.887 484.643 205.887Z" fill="white"/>
<path fill-rule="evenodd" clip-rule="evenodd" d="M437.518 200.104C437.171 200.104 436.879 200.389 436.879 200.741V204.772C436.879 205.118 437.164 205.409 437.518 205.409H484.644C484.998 205.409 485.283 205.118 485.283 204.772V200.741C485.283 200.396 484.998 200.104 484.644 200.104H437.518ZM435.921 200.741C435.921 199.852 436.651 199.148 437.518 199.148H484.644C485.536 199.148 486.241 199.877 486.241 200.741V204.772C486.241 205.636 485.536 206.365 484.644 206.365H437.518C436.626 206.365 435.921 205.636 435.921 204.772V200.741Z" fill="#9A3B82"/>
<path fill-rule="evenodd" clip-rule="evenodd" d="M336.398 185.879H355.482V236.042H336.398V185.879ZM337.357 186.835V235.086H354.524V186.835H337.357Z" fill="#9A3B82"/>
<path d="M336.879 186.357H329.565V235.564H336.879V186.357Z" fill="white"/>
<path fill-rule="evenodd" clip-rule="evenodd" d="M329.086 185.879H337.358V236.042H329.086V185.879ZM330.044 186.835V235.086H336.4V186.835H330.044Z" fill="#9A3B82"/>
<path d="M329.564 186.357H317.268V235.564H329.564V186.357Z" fill="white"/>
<path fill-rule="evenodd" clip-rule="evenodd" d="M316.789 185.879H330.044V236.042H316.789V185.879ZM317.747 186.835V235.086H329.085V186.835H317.747Z" fill="#9A3B82"/>
<path fill-rule="evenodd" clip-rule="evenodd" d="M356.921 194.768H373.769V236.058H356.921V194.768ZM357.879 195.723V235.102H372.81V195.723H357.879Z" fill="#9A3B82"/>
<path d="M358.55 235.563H352.29C351.683 235.563 351.172 235.069 351.172 234.448V196.328C351.172 195.723 351.667 195.213 352.29 195.213H358.55C359.157 195.213 359.668 195.707 359.668 196.328V234.448C359.652 235.069 359.157 235.563 358.55 235.563Z" fill="white"/>
<path fill-rule="evenodd" clip-rule="evenodd" d="M352.289 195.692C351.936 195.692 351.651 195.983 351.651 196.329V234.449C351.651 234.802 351.943 235.086 352.289 235.086H358.549C358.883 235.086 359.176 234.813 359.188 234.442V196.329C359.188 195.976 358.896 195.692 358.549 195.692H352.289ZM350.692 196.329C350.692 195.464 351.397 194.736 352.289 194.736H358.549C359.416 194.736 360.146 195.44 360.146 196.329V234.455L360.146 234.461C360.124 235.33 359.427 236.042 358.549 236.042H352.289C351.422 236.042 350.692 235.339 350.692 234.449V196.329Z" fill="#9A3B82"/>
<path d="M373.289 195.246V217.357L364.682 195.246H373.289Z" fill="#9A3B82"/>
<path d="M410.082 235.564H384.658C384.099 235.564 383.588 235.214 383.397 234.704L366.884 192.299C366.533 191.407 367.188 190.451 368.146 190.451H393.569C394.128 190.451 394.639 190.802 394.831 191.311L411.343 233.716C411.695 234.609 411.04 235.564 410.082 235.564Z" fill="white"/>
<path fill-rule="evenodd" clip-rule="evenodd" d="M368.147 190.928C367.526 190.928 367.103 191.545 367.331 192.124L367.332 192.125L383.845 234.533L383.846 234.536C383.966 234.855 384.296 235.086 384.659 235.086H410.083C410.703 235.086 411.126 234.469 410.898 233.89L394.384 191.481L394.383 191.479C394.263 191.159 393.934 190.928 393.57 190.928H368.147ZM366.439 192.472C365.965 191.267 366.852 189.973 368.147 189.973H393.57C394.323 189.973 395.015 190.441 395.279 191.14C395.28 191.141 395.28 191.142 395.28 191.143L411.79 233.541C411.79 233.541 411.79 233.541 411.79 233.541C412.265 234.747 411.378 236.041 410.083 236.041H384.659C383.906 236.041 383.214 235.573 382.95 234.874C382.95 234.873 382.949 234.872 382.949 234.871L366.439 192.473C366.439 192.473 366.439 192.473 366.439 192.472Z" fill="#FFCF2D"/>
<path d="M414.234 235.564H388.81C388.252 235.564 387.74 235.214 387.549 234.704L371.037 192.299C370.685 191.407 371.34 190.451 372.298 190.451H397.721C398.28 190.451 398.791 190.802 398.983 191.311L415.495 233.716C415.847 234.609 415.192 235.564 414.234 235.564Z" fill="white"/>
<path fill-rule="evenodd" clip-rule="evenodd" d="M372.299 190.928C371.678 190.928 371.256 191.545 371.484 192.124L371.484 192.125L387.998 234.533L387.999 234.536C388.118 234.855 388.448 235.086 388.812 235.086H414.235C414.855 235.086 415.278 234.469 415.05 233.89L398.536 191.481L398.535 191.479C398.415 191.159 398.086 190.928 397.722 190.928H372.299ZM370.591 192.472C370.117 191.267 371.004 189.973 372.299 189.973H397.722C398.476 189.973 399.167 190.441 399.432 191.14C399.432 191.141 399.432 191.142 399.433 191.143L415.942 233.541C415.942 233.541 415.942 233.541 415.942 233.541C416.417 234.747 415.53 236.041 414.235 236.041H388.812C388.058 236.041 387.366 235.573 387.102 234.874C387.102 234.873 387.102 234.872 387.101 234.871L370.592 192.473C370.592 192.473 370.591 192.473 370.591 192.472Z" fill="#FFCF2D"/>
<path fill-rule="evenodd" clip-rule="evenodd" d="M444.12 108.33L459.476 161.756L459.013 161.886C456.593 162.567 454.026 162.94 451.394 162.94C436.006 162.94 423.543 150.508 423.543 135.158C423.543 122.499 432.042 111.802 443.66 108.463L444.12 108.33ZM443.465 109.518C432.483 112.889 424.501 123.103 424.501 135.158C424.501 149.98 436.535 161.984 451.394 161.984C453.768 161.984 456.088 161.67 458.289 161.093L443.465 109.518Z" fill="#FFCF2D"/>
<path fill-rule="evenodd" clip-rule="evenodd" d="M450.916 172.194V162.461H451.874V172.194H450.916Z" fill="#FFCF2D"/>
<path d="M451.394 158.287C464.2 158.287 474.581 147.932 474.581 135.157C474.581 122.383 464.2 112.027 451.394 112.027C438.587 112.027 428.206 122.383 428.206 135.157C428.206 147.932 438.587 158.287 451.394 158.287Z" fill="white"/>
<path fill-rule="evenodd" clip-rule="evenodd" d="M451.394 112.507C438.853 112.507 428.686 122.648 428.686 135.159C428.686 147.669 438.853 157.811 451.394 157.811C463.936 157.811 474.103 147.669 474.103 135.159C474.103 122.648 463.936 112.507 451.394 112.507ZM427.728 135.159C427.728 122.12 438.323 111.551 451.394 111.551C464.465 111.551 475.061 122.12 475.061 135.159C475.061 148.197 464.465 158.767 451.394 158.767C438.323 158.767 427.728 148.197 427.728 135.159Z" fill="#3FB1B5"/>
<path d="M461.087 172.131H441.78L451.362 167.336L461.087 172.131Z" fill="white"/>
<path fill-rule="evenodd" clip-rule="evenodd" d="M451.36 166.803L463.138 172.609H439.757L451.36 166.803ZM451.364 167.87L443.804 171.654H459.037L451.364 167.87Z" fill="#FFCF2D"/>
<path fill-rule="evenodd" clip-rule="evenodd" d="M316.581 171.717H486.24V454.996H476.547V433.969C476.547 429.661 473.04 426.163 468.722 426.163H334.004C329.685 426.163 326.179 429.661 326.179 433.969V454.996H316.581V171.717ZM317.539 172.673V454.04H325.22V433.969C325.22 429.133 329.156 425.208 334.004 425.208H468.722C473.569 425.208 477.505 429.133 477.505 433.969V454.04H485.282V172.673H317.539Z" fill="#9A3B82"/>
<path fill-rule="evenodd" clip-rule="evenodd" d="M328.862 370.122C327.275 370.122 326.003 371.404 326.003 372.973V414.534C326.003 416.117 327.288 417.386 328.862 417.386H473.64C475.214 417.386 476.499 416.117 476.499 414.534V372.973C476.499 371.391 475.214 370.122 473.64 370.122H328.862ZM325.045 372.973C325.045 370.879 326.743 369.166 328.862 369.166H473.64C475.74 369.166 477.457 370.86 477.457 372.973V414.534C477.457 416.647 475.74 418.341 473.64 418.341H328.862C326.762 418.341 325.045 416.647 325.045 414.534V372.973Z" fill="#3FB1B5"/>
<path d="M408.884 133.422V172.195H395.278L408.884 133.422Z" fill="#9A3B82"/>
<path d="M408.883 133.422L408.788 133.709L395.357 172.195H332.917L346.347 133.709L346.778 132.482C348.791 129.599 354.364 127.496 361.007 127.385C361.119 127.385 361.215 127.385 361.327 127.385C361.438 127.385 361.534 127.385 361.646 127.385C369.407 127.385 376.322 130.077 377.583 133.613C378.829 130.077 385.44 127.385 393.201 127.385C400.803 127.385 407.462 129.981 408.883 133.422Z" fill="white"/>
<path fill-rule="evenodd" clip-rule="evenodd" d="M361.004 126.906H361.647C365.579 126.906 369.308 127.587 372.228 128.727C374.65 129.673 376.599 130.968 377.58 132.524C378.534 130.972 380.411 129.676 382.771 128.729C385.616 127.588 389.271 126.906 393.203 126.906C397.054 126.906 400.679 127.563 403.534 128.667C406.364 129.76 408.54 131.334 409.328 133.239L409.395 133.404L409.242 133.862L395.699 172.672H332.244L345.896 133.551L346.349 132.262L346.386 132.209C347.472 130.653 349.473 129.361 351.993 128.444C354.525 127.524 357.633 126.963 361 126.906L361.004 126.906ZM361.012 127.862C357.738 127.917 354.739 128.463 352.321 129.342C349.923 130.215 348.146 131.396 347.21 132.703L346.801 133.866L333.592 171.717H395.018L408.334 133.557L408.336 133.551L408.372 133.445C407.678 131.969 405.849 130.586 403.188 129.558C400.458 128.503 396.953 127.862 393.203 127.862C389.373 127.862 385.842 128.527 383.129 129.616C380.39 130.715 378.589 132.202 378.037 133.771L377.587 135.046L377.133 133.773C376.575 132.209 374.703 130.72 371.879 129.617C369.085 128.527 365.477 127.862 361.647 127.862H361.012Z" fill="#FFCF2D"/>
<path fill-rule="evenodd" clip-rule="evenodd" d="M377.729 133.163C377.978 133.252 378.108 133.525 378.019 133.774L364.461 171.559C364.371 171.808 364.097 171.937 363.848 171.848C363.599 171.759 363.469 171.486 363.558 171.237L377.116 133.452C377.206 133.203 377.48 133.074 377.729 133.163Z" fill="#FFCF2D"/>
<path d="M363.978 171.717H332.917C334.067 168.133 340.518 165.377 348.28 165.377C356.073 165.377 362.828 168.133 363.978 171.717Z" fill="#FFCF2D"/>
<path d="M395.278 171.717H364.218C365.368 168.133 371.819 165.377 379.58 165.377C387.373 165.377 394.128 168.133 395.278 171.717Z" fill="#FFCF2D"/>
<path fill-rule="evenodd" clip-rule="evenodd" d="M393.122 380.173C392.127 380.173 391.333 380.976 391.333 381.957C391.333 382.221 391.119 382.435 390.854 382.435C390.589 382.435 390.375 382.221 390.375 381.957C390.375 380.452 391.593 379.217 393.122 379.217H410.065C411.573 379.217 412.812 380.432 412.812 381.957C412.812 382.221 412.598 382.435 412.333 382.435C412.068 382.435 411.854 382.221 411.854 381.957C411.854 380.964 411.049 380.173 410.065 380.173H393.122Z" fill="#9A3B82"/>
<path fill-rule="evenodd" clip-rule="evenodd" d="M316.581 298.949C316.581 298.685 316.796 298.471 317.06 298.471H485.761C486.025 298.471 486.24 298.685 486.24 298.949C486.24 299.213 486.025 299.427 485.761 299.427H317.06C316.796 299.427 316.581 299.213 316.581 298.949Z" fill="#9A3B82"/>
<path fill-rule="evenodd" clip-rule="evenodd" d="M316.581 235.564C316.581 235.3 316.796 235.086 317.06 235.086H485.761C486.025 235.086 486.24 235.3 486.24 235.564C486.24 235.828 486.025 236.042 485.761 236.042H317.06C316.796 236.042 316.581 235.828 316.581 235.564Z" fill="#9A3B82"/>
<path fill-rule="evenodd" clip-rule="evenodd" d="M316.581 362.318C316.581 362.054 316.796 361.84 317.06 361.84H485.761C486.025 361.84 486.24 362.054 486.24 362.318C486.24 362.582 486.025 362.796 485.761 362.796H317.06C316.796 362.796 316.581 362.582 316.581 362.318Z" fill="#9A3B82"/>
<path fill-rule="evenodd" clip-rule="evenodd" d="M337.979 112.548C338.228 112.636 338.36 112.908 338.273 113.157L317.735 171.717H485.421L506.069 112.842C506.156 112.593 506.429 112.461 506.679 112.548C506.929 112.636 507.061 112.908 506.973 113.157L486.213 172.352C486.146 172.544 485.964 172.672 485.761 172.672H317.06C316.905 172.672 316.759 172.597 316.669 172.471C316.58 172.345 316.557 172.183 316.608 172.037L337.368 112.842C337.456 112.593 337.729 112.461 337.979 112.548Z" fill="#9A3B82"/>
<path d="M145.835 433.939V451.271C145.835 453.071 147.288 454.521 149.093 454.521H192.53C192.53 454.521 192.785 446.476 186.174 444.23C174.947 440.423 169.709 433.939 169.709 433.939H145.835Z" fill="white"/>
<path fill-rule="evenodd" clip-rule="evenodd" d="M145.836 433.461H169.939L170.083 433.639L170.083 433.639L170.085 433.641C170.087 433.644 170.09 433.648 170.095 433.653C170.104 433.664 170.118 433.681 170.137 433.704C170.175 433.749 170.235 433.818 170.314 433.907C170.474 434.085 170.716 434.347 171.043 434.674C171.696 435.328 172.687 436.244 174.025 437.279C176.703 439.348 180.773 441.893 186.328 443.777L186.329 443.777C189.826 444.965 191.496 447.691 192.286 450.066C192.681 451.254 192.862 452.366 192.943 453.18C192.984 453.588 193.001 453.923 193.007 454.157C193.01 454.275 193.011 454.367 193.01 454.431C193.01 454.463 193.01 454.488 193.01 454.506C193.009 454.514 193.009 454.521 193.009 454.526L193.009 454.532L193.009 454.535C193.009 454.535 193.009 454.535 192.53 454.52L193.009 454.535L192.994 454.998H149.093C147.024 454.998 145.356 453.334 145.356 451.27V433.939H145.836V433.461ZM146.315 434.417V451.27C146.315 452.807 147.553 454.042 149.093 454.042H192.045C192.036 453.841 192.021 453.581 191.99 453.276C191.913 452.511 191.744 451.472 191.377 450.368C190.642 448.159 189.134 445.74 186.02 444.682C180.349 442.759 176.187 440.158 173.439 438.034C172.065 436.972 171.044 436.029 170.364 435.349C170.024 435.008 169.77 434.734 169.599 434.543C169.557 434.496 169.52 434.453 169.488 434.417H146.315Z" fill="#FE5244"/>
<path fill-rule="evenodd" clip-rule="evenodd" d="M175.042 435.705C175.487 435.762 175.95 435.92 176.309 436.278C176.651 436.619 176.848 437.012 176.891 437.44C176.934 437.86 176.826 438.27 176.639 438.647C176.272 439.388 175.555 440.102 174.766 440.723C173.182 441.968 171.086 443.005 170.127 443.273L169.869 442.352C170.682 442.126 172.666 441.156 174.173 439.972C174.929 439.378 175.509 438.771 175.78 438.224C175.912 437.956 175.958 437.729 175.938 437.537C175.919 437.353 175.837 437.158 175.632 436.954C175.472 436.794 175.235 436.693 174.92 436.653C174.605 436.613 174.248 436.638 173.898 436.698C173.551 436.758 173.23 436.848 172.995 436.925C172.878 436.963 172.783 436.997 172.719 437.021C172.687 437.033 172.662 437.042 172.646 437.049C172.638 437.052 172.633 437.054 172.629 437.055L172.625 437.057C172.625 437.057 172.626 437.057 172.441 436.616C172.257 436.175 172.257 436.175 172.257 436.175L172.258 436.174L172.261 436.173L172.268 436.17C172.274 436.168 172.282 436.164 172.293 436.16C172.314 436.152 172.344 436.14 172.382 436.126C172.458 436.097 172.566 436.059 172.699 436.016C172.963 435.93 173.33 435.826 173.735 435.757C174.138 435.687 174.598 435.648 175.042 435.705Z" fill="#FE5244"/>
<path fill-rule="evenodd" clip-rule="evenodd" d="M182.339 438.472C181.175 437.536 179.774 438.027 178.84 438.567C178.351 438.849 177.929 439.177 177.631 439.431C177.481 439.559 177.36 439.671 177.277 439.75C177.235 439.79 177.202 439.823 177.179 439.845C177.168 439.857 177.159 439.866 177.153 439.872L177.145 439.88L177.143 439.882L177.142 439.883C177.142 439.883 177.142 439.884 177.487 440.215C177.833 440.546 177.833 440.546 177.832 440.546L177.833 440.545L177.837 440.541C177.841 440.537 177.848 440.53 177.857 440.521C177.875 440.503 177.903 440.476 177.939 440.441C178.012 440.371 178.119 440.272 178.254 440.158C178.525 439.926 178.898 439.637 179.32 439.394C180.206 438.882 181.081 438.688 181.738 439.217L181.739 439.218C181.966 439.4 182.064 439.579 182.098 439.746C182.134 439.921 182.11 440.137 182.003 440.402C181.781 440.946 181.253 441.574 180.543 442.203C179.843 442.822 179.011 443.403 178.245 443.86C177.469 444.322 176.797 444.634 176.416 444.74L176.674 445.661C177.179 445.52 177.939 445.155 178.736 444.681C179.542 444.2 180.425 443.585 181.179 442.918C181.921 442.26 182.585 441.513 182.891 440.761C183.046 440.378 183.121 439.967 183.037 439.556C182.952 439.138 182.714 438.772 182.339 438.472Z" fill="#FE5244"/>
<path d="M171.051 435.341L145.835 443.163V433.939H169.725C169.725 433.939 170.156 434.481 171.051 435.341Z" fill="#FE5244"/>
<path d="M200.29 433.939V451.271C200.29 453.071 201.743 454.521 203.548 454.521H246.985C246.985 454.521 247.24 446.476 240.629 444.23C229.402 440.423 224.164 433.939 224.164 433.939H200.29Z" fill="white"/>
<path fill-rule="evenodd" clip-rule="evenodd" d="M200.291 433.461H224.394L224.538 433.639L224.538 433.639L224.54 433.641C224.542 433.644 224.545 433.648 224.55 433.653C224.559 433.664 224.573 433.681 224.592 433.704C224.631 433.749 224.69 433.818 224.769 433.907C224.929 434.085 225.171 434.347 225.498 434.674C226.152 435.328 227.142 436.244 228.481 437.279C231.158 439.348 235.228 441.893 240.784 443.777L240.784 443.777C244.281 444.965 245.951 447.691 246.741 450.066C247.136 451.254 247.317 452.366 247.398 453.18C247.439 453.588 247.456 453.923 247.462 454.157C247.465 454.275 247.466 454.367 247.465 454.431C247.465 454.463 247.465 454.488 247.465 454.506C247.465 454.514 247.464 454.521 247.464 454.526L247.464 454.532L247.464 454.535C247.464 454.535 247.464 454.535 246.985 454.52L247.464 454.535L247.449 454.998H203.548C201.479 454.998 199.812 453.334 199.812 451.27V433.939H200.291V433.461ZM200.77 434.417V451.27C200.77 452.807 202.008 454.042 203.548 454.042H246.5C246.492 453.841 246.476 453.581 246.445 453.276C246.368 452.511 246.199 451.472 245.832 450.368C245.097 448.159 243.589 445.74 240.475 444.682C234.804 442.759 230.642 440.158 227.894 438.034C226.52 436.972 225.499 436.029 224.819 435.349C224.48 435.008 224.225 434.734 224.054 434.543C224.012 434.496 223.975 434.453 223.943 434.417H200.77Z" fill="#FE5244"/>
<path fill-rule="evenodd" clip-rule="evenodd" d="M229.496 435.705C229.941 435.762 230.405 435.92 230.763 436.278C231.105 436.619 231.302 437.012 231.346 437.44C231.388 437.86 231.28 438.27 231.093 438.647C230.727 439.388 230.01 440.102 229.22 440.723C227.636 441.968 225.541 443.005 224.581 443.273L224.323 442.352C225.136 442.126 227.121 441.156 228.627 439.972C229.383 439.378 229.963 438.771 230.234 438.224C230.366 437.956 230.412 437.729 230.392 437.537C230.374 437.353 230.291 437.158 230.086 436.954C229.926 436.794 229.689 436.693 229.374 436.653C229.059 436.613 228.702 436.638 228.352 436.698C228.005 436.758 227.684 436.848 227.449 436.925C227.332 436.963 227.237 436.997 227.173 437.021C227.141 437.033 227.116 437.042 227.101 437.049C227.093 437.052 227.087 437.054 227.083 437.055L227.08 437.057C227.08 437.057 227.08 437.057 226.895 436.616C226.711 436.175 226.711 436.175 226.711 436.175L226.713 436.174L226.715 436.173L226.722 436.17C226.728 436.168 226.736 436.164 226.747 436.16C226.768 436.152 226.798 436.14 226.836 436.126C226.912 436.097 227.02 436.059 227.153 436.016C227.417 435.93 227.784 435.826 228.189 435.757C228.592 435.687 229.052 435.648 229.496 435.705Z" fill="#FE5244"/>
<path fill-rule="evenodd" clip-rule="evenodd" d="M236.794 438.472C235.63 437.536 234.229 438.027 233.295 438.567C232.806 438.849 232.384 439.177 232.086 439.431C231.936 439.559 231.815 439.671 231.732 439.75C231.69 439.79 231.657 439.823 231.634 439.845C231.623 439.857 231.614 439.866 231.608 439.872L231.6 439.88L231.598 439.882L231.597 439.883C231.597 439.883 231.597 439.884 231.942 440.215C232.288 440.546 232.288 440.546 232.287 440.546L232.288 440.545L232.292 440.541C232.296 440.537 232.303 440.53 232.312 440.521C232.33 440.503 232.358 440.476 232.394 440.441C232.467 440.371 232.574 440.272 232.709 440.158C232.98 439.926 233.353 439.637 233.775 439.394C234.661 438.882 235.536 438.688 236.193 439.217L236.194 439.218C236.421 439.4 236.519 439.579 236.553 439.746C236.589 439.921 236.565 440.137 236.458 440.402C236.236 440.946 235.708 441.574 234.998 442.203C234.298 442.822 233.466 443.403 232.7 443.86C231.924 444.322 231.252 444.634 230.871 444.74L231.129 445.661C231.634 445.52 232.394 445.155 233.191 444.681C233.997 444.2 234.88 443.585 235.634 442.918C236.376 442.26 237.04 441.513 237.346 440.761C237.501 440.378 237.575 439.967 237.492 439.556C237.407 439.138 237.169 438.772 236.794 438.472Z" fill="#FE5244"/>
<path d="M225.506 435.341L200.29 443.163V433.939H224.18C224.18 433.939 224.611 434.481 225.506 435.341Z" fill="#FE5244"/>
<path d="M157.576 261.42L141.846 425.688H174.743L191.271 346.087L198.026 363.052V425.688H232.28V355.453L214.011 261.42H157.576Z" fill="#3FB1B5"/>
<path fill-rule="evenodd" clip-rule="evenodd" d="M158.936 425.63L174.234 300.82L175.185 300.936L159.887 425.746L158.936 425.63Z" fill="#9A3B82"/>
<path fill-rule="evenodd" clip-rule="evenodd" d="M193.557 269.27L215.034 355.395V425.688H214.076V355.512L192.627 269.5L193.557 269.27Z" fill="#9A3B82"/>
<path fill-rule="evenodd" clip-rule="evenodd" d="M177.494 303.493C177.494 303.493 177.494 303.493 177.494 303.493L197.999 362.895L197.093 363.206L176.588 303.804C175.952 301.959 174.203 300.718 172.234 300.718V299.762C174.609 299.762 176.724 301.26 177.494 303.493Z" fill="white"/>
<path d="M154.973 288.58L157.576 261.42H214.011L215.624 269.767L154.973 288.58Z" fill="#9A3B82"/>
<path d="M232.344 433.939H197.898C196.605 433.939 195.551 432.888 195.551 431.597V428.029C195.551 426.739 196.605 425.688 197.898 425.688H232.344C233.638 425.688 234.692 426.739 234.692 428.029V431.597C234.676 432.888 233.638 433.939 232.344 433.939Z" fill="#9A3B82"/>
<path d="M175.333 433.939H140.887C139.593 433.939 138.539 432.888 138.539 431.597V428.029C138.539 426.739 139.593 425.688 140.887 425.688H175.333C176.626 425.688 177.68 426.739 177.68 428.029V431.597C177.664 432.888 176.626 433.939 175.333 433.939Z" fill="#9A3B82"/>
<path d="M267.267 266.232L278.062 306.518L224.245 320.871L213.434 280.553C213.099 279.294 212.284 278.307 211.246 277.701C210.208 277.096 208.931 276.889 207.669 277.223C205.162 277.893 203.661 280.473 204.331 282.974L215.143 323.292L213.961 323.611L203.166 283.325C202.303 280.123 204.156 276.841 207.318 275.885C207.381 275.869 207.445 275.854 207.509 275.838L259.761 261.899C263.035 261.039 266.389 262.982 267.267 266.232Z" fill="#66B0F0"/>
<path d="M214.632 280.282L225.427 320.568L224.245 320.887L213.434 280.569C213.099 279.31 212.284 278.323 211.246 277.717C210.208 277.112 208.931 276.905 207.669 277.24C205.162 277.909 203.661 280.489 204.331 282.99L215.143 323.308L213.961 323.627L203.166 283.341C202.303 280.139 204.156 276.857 207.318 275.901C210.527 275.153 213.769 277.08 214.632 280.282Z" fill="#9A3B82"/>
<path d="M213.434 280.553L223.575 318.402L214.472 320.824L204.332 282.975C203.661 280.474 205.146 277.893 207.67 277.224C208.931 276.889 210.209 277.096 211.247 277.702C212.285 278.307 213.099 279.295 213.434 280.553Z" fill="white"/>
<path d="M267.426 287.578L242.945 295.988L223.622 261.421H148.726C135.998 261.421 126.48 249.744 129.083 237.319L136.876 199.98C139.32 188.287 149.652 179.908 161.613 179.908H212.827C225.235 179.908 235.807 188.893 237.771 201.111L245.484 237.462L267.426 287.578Z" fill="#FFCF2D"/>
<path fill-rule="evenodd" clip-rule="evenodd" d="M137.346 200.077C137.346 200.077 137.346 200.077 137.346 200.077L129.553 237.416L129.553 237.416C127.012 249.544 136.303 260.942 148.726 260.942H223.904L243.169 295.406L266.78 287.294L245.026 237.609L237.301 201.197L237.299 201.186C235.372 189.2 225.001 180.385 212.828 180.385H161.614C149.88 180.385 139.743 188.606 137.346 200.077ZM136.408 199.882C138.898 187.968 149.426 179.43 161.614 179.43H212.828C225.467 179.43 236.237 188.579 238.243 201.023L245.944 237.315L268.074 287.86L242.723 296.57L223.342 261.898H148.726C135.695 261.898 125.95 249.943 128.615 237.221L136.408 199.882Z" fill="white"/>
<path d="M144.734 261.021C135.919 259.253 129.372 251.766 128.701 242.941C129.372 242.479 130.122 242.08 130.921 241.794C136.718 239.659 143.345 243.164 145.756 249.615C147.242 253.661 146.731 257.899 144.734 261.021Z" fill="white"/>
<path d="M200.499 157.51V179.923H175.698L181.415 165.013L200.499 157.51Z" fill="#E57281"/>
<path d="M206.199 148.08C206.183 148.08 206.151 148.096 206.135 148.096L198.773 150.039C196.138 150.74 194.11 152.683 193.248 155.137H190.421C188.633 155.137 187.18 156.586 187.18 158.37V158.418C187.18 160.107 188.473 161.493 190.134 161.636C190.118 161.652 190.118 161.652 190.118 161.652C190.118 161.652 188.809 167.865 181.159 165.778C181.159 165.778 181.463 149.434 181.782 144.352C182.053 140.163 204.331 132.23 206.391 135.607C208.211 138.602 206.103 140.003 204.315 140.625C207.477 139.956 213.449 139.064 214.056 141.724C214.759 144.814 208.451 147.49 206.199 148.08Z" fill="#9A3B82"/>
<path d="M207.637 159.533H206.855L207.078 163.356C207.238 166.096 205.034 168.422 202.287 168.422H198.838C195.516 168.422 192.818 165.73 192.818 162.416V161.668H190.438C188.65 161.668 187.196 160.218 187.196 158.434V158.386C187.196 156.602 188.65 155.152 190.438 155.152H193.265C194.127 152.699 196.155 150.74 198.79 150.055L206.152 148.111L208.675 158.195C208.931 158.832 208.324 159.533 207.637 159.533Z" fill="#E57281"/>
<path fill-rule="evenodd" clip-rule="evenodd" d="M193.608 162.322C193.827 162.343 193.988 162.537 193.967 162.756C193.815 164.354 194.534 165.735 195.707 166.732C196.886 167.734 198.503 168.326 200.07 168.326C200.29 168.326 200.469 168.504 200.469 168.724C200.469 168.944 200.29 169.122 200.07 169.122C198.315 169.122 196.514 168.464 195.19 167.339C193.86 166.209 192.99 164.588 193.173 162.681C193.194 162.462 193.388 162.301 193.608 162.322Z" fill="#9A3B82"/>
<path fill-rule="evenodd" clip-rule="evenodd" d="M189.625 156.728C189.625 156.508 189.804 156.33 190.024 156.33C191.49 156.33 192.675 157.512 192.675 158.974C192.675 159.194 192.496 159.373 192.276 159.373C192.055 159.373 191.877 159.194 191.877 158.974C191.877 157.952 191.049 157.127 190.024 157.127C189.804 157.127 189.625 156.948 189.625 156.728Z" fill="#9A3B82"/>
<path d="M204.924 156.697C205.25 156.697 205.515 156.148 205.515 155.471C205.515 154.793 205.25 154.244 204.924 154.244C204.598 154.244 204.333 154.793 204.333 155.471C204.333 156.148 204.598 156.697 204.924 156.697Z" fill="#9A3B82"/>
<path fill-rule="evenodd" clip-rule="evenodd" d="M202.369 152.89L202.127 152.573C201.951 152.707 201.918 152.957 202.052 153.132C202.186 153.306 202.436 153.34 202.611 153.206L202.614 153.205C202.616 153.203 202.621 153.199 202.627 153.195C202.64 153.186 202.659 153.171 202.686 153.153C202.74 153.116 202.822 153.061 202.929 152.995C203.145 152.862 203.462 152.684 203.865 152.505C204.671 152.146 205.809 151.791 207.144 151.791C207.364 151.791 207.543 151.612 207.543 151.392C207.543 151.172 207.364 150.994 207.144 150.994C205.668 150.994 204.418 151.387 203.54 151.777C203.1 151.973 202.751 152.169 202.51 152.317C202.39 152.391 202.296 152.453 202.231 152.498C202.199 152.521 202.174 152.538 202.156 152.551C202.148 152.558 202.141 152.563 202.136 152.566L202.13 152.571L202.128 152.572L202.127 152.573L202.127 152.573C202.127 152.573 202.127 152.573 202.369 152.89Z" fill="#9A3B82"/>
<path d="M194.767 271.631C194.767 271.631 214.329 272.476 221.212 256.817L217.571 250.174L206.696 254.347L194.767 271.631Z" fill="white"/>
<path fill-rule="evenodd" clip-rule="evenodd" d="M217.79 249.578L221.745 256.794L221.65 257.009C218.133 265.011 211.376 268.784 205.547 270.554C202.632 271.439 199.937 271.828 197.971 271.995C196.988 272.079 196.185 272.108 195.627 272.115C195.348 272.119 195.129 272.118 194.98 272.115C194.905 272.114 194.848 272.113 194.808 272.111C194.788 272.111 194.773 272.11 194.763 272.11L194.751 272.109L194.746 272.109C194.746 272.109 194.746 272.109 194.766 271.632L194.746 272.109L193.881 272.072L206.385 253.955L217.79 249.578ZM195.674 271.159C196.21 271.15 196.967 271.122 197.89 271.043C199.807 270.879 202.433 270.5 205.268 269.639C210.889 267.933 217.287 264.349 220.678 256.839L217.351 250.77L207.006 254.741L195.674 271.159Z" fill="#FE5244"/>
<path d="M210.433 175.814C209.491 175.894 208.629 176.308 207.99 176.945C207.287 177.646 206.84 178.618 206.84 179.701V258.187C206.84 265.674 200.756 271.744 193.25 271.744H163.084C154.971 271.744 148.711 264.719 149.574 256.738V256.722L160.433 182.218C160.976 178.538 164.122 175.814 167.859 175.814H210.433Z" fill="#FE5244"/>
<path fill-rule="evenodd" clip-rule="evenodd" d="M160.907 182.287C160.906 182.287 160.906 182.287 160.906 182.287L150.052 256.756V256.763L150.05 256.788C149.218 264.488 155.257 271.265 163.083 271.265H193.25C200.491 271.265 206.36 265.41 206.36 258.187V179.701C206.36 178.483 206.864 177.392 207.651 176.607C207.762 176.496 207.88 176.39 208.003 176.292H167.858C164.36 176.292 161.415 178.841 160.907 182.287ZM210.433 175.814V175.336H167.858C163.883 175.336 160.536 178.235 159.959 182.148L149.094 256.687V256.712C148.218 264.963 154.693 272.221 163.083 272.221H193.25C201.02 272.221 207.319 265.938 207.319 258.187V179.701C207.319 178.752 207.71 177.9 208.328 177.283C208.888 176.724 209.646 176.36 210.473 176.29L210.433 175.814Z" fill="#FE5244"/>
<path d="M207.397 175.815C206.455 175.894 205.593 176.309 204.954 176.946C204.363 177.535 203.964 178.3 203.852 179.16C203.836 179.335 203.82 179.51 203.82 179.686L203.182 185.691L195.516 258.172C195.516 265.659 189.432 271.728 181.926 271.728H163.098C154.986 271.728 148.726 264.703 149.588 256.722V256.706L154.491 223.031L160.447 182.203C160.495 181.852 160.575 181.502 160.671 181.151C161.597 178.013 164.504 175.799 167.857 175.799H207.397V175.815Z" fill="white"/>
<path fill-rule="evenodd" clip-rule="evenodd" d="M161.13 181.281C161.038 181.618 160.964 181.945 160.92 182.267L160.92 182.269L154.963 223.099L150.065 256.74V256.747L150.062 256.773C149.23 264.473 155.27 271.25 163.096 271.25H181.924C189.165 271.25 195.035 265.394 195.035 258.171V258.146L202.703 185.64L202.703 185.64L203.339 179.659C203.341 179.471 203.357 179.287 203.372 179.125L203.374 179.107L203.375 179.098C203.501 178.127 203.952 177.267 204.613 176.607C204.731 176.49 204.855 176.379 204.985 176.276H167.855C164.717 176.276 161.998 178.347 161.13 181.281ZM160.209 181.016C161.195 177.676 164.287 175.32 167.855 175.32H207.874V176.253L207.436 176.29C206.608 176.36 205.851 176.724 205.291 177.283C204.773 177.8 204.425 178.466 204.326 179.212C204.31 179.387 204.297 179.538 204.297 179.685V179.71L203.656 185.741L203.656 185.741L195.993 258.197C195.979 265.936 189.686 272.205 181.924 272.205H163.096C154.706 272.205 148.23 264.947 149.107 256.696V256.671L154.015 222.961L159.971 182.137C159.971 182.137 159.971 182.136 159.971 182.135C160.022 181.758 160.108 181.387 160.207 181.025L160.208 181.02L160.209 181.016Z" fill="#FE5244"/>
<path d="M200.675 191.442L197.817 212.835C196.874 217.216 193.457 219.558 188.507 220.354L154.651 225.261L159.586 191.426H200.675V191.442Z" fill="#FFCF2D"/>
<path d="M206.185 175.815H205.339C203.806 175.799 202.464 176.882 202.161 178.395L197.178 210.462C196.236 214.843 192.356 217.981 187.868 217.981H156.712C152.943 217.981 150.132 214.508 150.947 210.828L156.951 183.62C157.958 179.064 162.014 175.815 166.693 175.815H206.185Z" fill="#FE5244"/>
<path fill-rule="evenodd" clip-rule="evenodd" d="M205.342 175.336H206.186V176.292H205.276C204.001 176.306 202.892 177.214 202.633 178.479L197.651 210.548L197.648 210.562C196.658 215.162 192.583 218.458 187.869 218.458H156.713C152.639 218.458 149.599 214.704 150.48 210.725L156.484 183.517C157.539 178.742 161.79 175.336 166.694 175.336H205.27C205.294 175.336 205.318 175.336 205.342 175.336ZM202.833 176.292H166.694C162.239 176.292 158.378 179.386 157.42 183.722C157.42 183.722 157.42 183.722 157.42 183.722L151.416 210.931C150.667 214.311 153.249 217.502 156.713 217.502H187.869C192.125 217.502 195.808 214.529 196.708 210.374L201.69 178.311L201.692 178.301C201.852 177.502 202.264 176.808 202.833 176.292Z" fill="#FE5244"/>
<path d="M180.506 226.9L188.443 178.49C188.602 177.518 189.449 176.785 190.439 176.785C191.684 176.785 192.643 177.9 192.435 179.143L184.498 227.553C184.339 228.525 183.492 229.258 182.502 229.258C181.256 229.258 180.298 228.143 180.506 226.9Z" fill="white"/>
<path fill-rule="evenodd" clip-rule="evenodd" d="M188.916 178.568C188.916 178.568 188.916 178.568 188.916 178.568L180.979 226.979L180.979 226.98C180.82 227.931 181.552 228.781 182.503 228.781C183.253 228.781 183.904 228.223 184.026 227.477C184.026 227.477 184.026 227.478 184.026 227.477L191.963 179.067L191.963 179.066C192.122 178.115 191.39 177.264 190.44 177.264C189.689 177.264 189.039 177.823 188.916 178.568ZM187.971 178.414C188.167 177.216 189.21 176.309 190.44 176.309C191.98 176.309 193.164 177.688 192.908 179.222C192.908 179.222 192.908 179.222 192.908 179.223L184.972 227.632C184.775 228.83 183.732 229.737 182.503 229.737C180.962 229.737 179.778 228.358 180.034 226.824C180.034 226.824 180.034 226.823 180.034 226.823L187.971 178.414L187.971 178.414Z" fill="#FE5244"/>
<path d="M162.763 226.9L170.7 178.49C170.859 177.518 171.706 176.785 172.696 176.785C173.941 176.785 174.9 177.9 174.692 179.143L166.755 227.553C166.595 228.525 165.749 229.258 164.759 229.258C163.513 229.258 162.555 228.143 162.763 226.9Z" fill="white"/>
<path fill-rule="evenodd" clip-rule="evenodd" d="M171.174 178.568C171.174 178.568 171.174 178.568 171.174 178.568L163.237 226.979L163.237 226.98C163.078 227.931 163.81 228.781 164.761 228.781C165.511 228.781 166.161 228.223 166.284 227.477C166.284 227.477 166.284 227.478 166.284 227.477L174.221 179.067L174.221 179.066C174.38 178.115 173.648 177.264 172.697 177.264C171.947 177.264 171.297 177.823 171.174 178.568ZM170.229 178.414C170.425 177.216 171.468 176.309 172.697 176.309C174.238 176.309 175.422 177.688 175.166 179.222C175.166 179.222 175.166 179.222 175.166 179.223L167.23 227.632C167.033 228.83 165.99 229.737 164.761 229.737C163.22 229.737 162.036 228.358 162.292 226.824C162.292 226.824 162.292 226.823 162.292 226.823L170.229 178.414L170.229 178.414Z" fill="#FE5244"/>
<path d="M214.664 179.94L206.855 179.972V179.701C206.855 178.618 207.287 177.646 208.005 176.945C208.644 176.308 209.49 175.894 210.449 175.814H211.087C213.052 175.974 214.601 177.63 214.664 179.94Z" fill="white"/>
<path fill-rule="evenodd" clip-rule="evenodd" d="M210.429 175.336H211.107L211.127 175.338C213.364 175.519 215.074 177.403 215.144 179.927L215.157 180.416L206.377 180.451V179.701C206.377 178.489 206.86 177.395 207.669 176.605C208.385 175.892 209.335 175.427 210.409 175.338L210.429 175.336ZM210.47 176.292C209.636 176.366 208.902 176.727 208.345 177.283L208.343 177.285L208.341 177.287C207.76 177.853 207.392 178.624 207.341 179.492L214.147 179.464C213.906 177.644 212.616 176.426 211.068 176.292H210.47Z" fill="#FE5244"/>
<path d="M264.503 288.582L271.082 305.515C272.136 308.239 270.603 311.266 267.792 312.046L253.34 315.997C252.462 316.236 251.536 316.029 250.849 315.439L249.38 314.165L252.382 313.369C253.707 313.018 254.602 311.792 254.538 310.422L254.202 307.045C254.139 305.531 252.909 304.321 251.392 304.273H251.551C249.715 304.209 247.926 303.078 247.208 301.389L244.908 295.288L264.503 288.582Z" fill="#E57281"/>
<path fill-rule="evenodd" clip-rule="evenodd" d="M244.386 295.501C244.629 295.398 244.911 295.511 245.014 295.754L247.473 301.537C247.473 301.537 247.473 301.537 247.473 301.537C248.12 303.056 249.585 304.072 251.232 304.129C252.999 304.185 254.43 305.594 254.506 307.357C254.506 307.358 254.506 307.358 254.506 307.358L254.681 311.052C254.757 312.675 253.685 313.923 252.17 314.324C252.17 314.324 252.17 314.324 252.169 314.324L249.808 314.96C249.553 315.029 249.29 314.879 249.221 314.624C249.152 314.369 249.303 314.107 249.558 314.038L251.923 313.4L251.924 313.4C253.06 313.1 253.776 312.213 253.724 311.096L253.548 307.4L253.548 307.399C253.495 306.136 252.468 305.124 251.201 305.084L251.2 305.084C249.174 305.014 247.382 303.767 246.591 301.91L244.132 296.128C244.029 295.885 244.142 295.604 244.386 295.501Z" fill="white"/>
<path fill-rule="evenodd" clip-rule="evenodd" d="M259.929 305.516C260.194 305.504 260.418 305.707 260.43 305.971L260.654 310.687C260.744 312.664 259.447 314.427 257.535 314.93C257.279 314.998 257.017 314.845 256.95 314.59C256.882 314.335 257.035 314.074 257.29 314.006C258.764 313.618 259.766 312.259 259.697 310.731C259.697 310.731 259.697 310.731 259.697 310.73L259.473 306.016C259.461 305.752 259.665 305.529 259.929 305.516Z" fill="white"/>
<path fill-rule="evenodd" clip-rule="evenodd" d="M266.045 303.94C266.31 303.928 266.534 304.131 266.547 304.395L266.77 309.111C266.86 311.087 265.563 312.85 263.651 313.354C263.396 313.421 263.133 313.269 263.066 313.014C262.998 312.759 263.151 312.497 263.407 312.43C264.881 312.042 265.882 310.683 265.813 309.155C265.813 309.155 265.813 309.154 265.813 309.154L265.59 304.44C265.577 304.176 265.781 303.952 266.045 303.94Z" fill="white"/>
<path fill-rule="evenodd" clip-rule="evenodd" d="M212.212 238.237L208.348 218.07L209.289 217.891L213.153 238.058C213.799 241.449 214.995 244.73 216.678 247.744L216.679 247.745L243.153 295.406L267.254 287.126L267.566 288.03L242.705 296.571L215.841 248.209C215.841 248.209 215.841 248.209 215.841 248.208C214.108 245.106 212.876 241.728 212.212 238.237Z" fill="white"/>
<path d="M224.995 263.716L216.26 247.977C214.791 245.317 213.689 242.481 212.986 239.534C213.817 239.264 214.679 239.072 215.589 238.993C222.488 238.387 228.604 244.17 229.259 251.896C229.642 256.579 227.934 260.896 224.995 263.716Z" fill="white"/>
</svg>
